<?xml version="1.0" encoding="UTF-8" standalone="no"?>
<!-- Created with Inkscape (http://www.inkscape.org/) -->

<svg
   xmlns:dc="http://purl.org/dc/elements/1.1/"
   xmlns:cc="http://creativecommons.org/ns#"
   xmlns:rdf="http://www.w3.org/1999/02/22-rdf-syntax-ns#"
   xmlns:svg="http://www.w3.org/2000/svg"
   xmlns="http://www.w3.org/2000/svg"
   xmlns:sodipodi="http://sodipodi.sourceforge.net/DTD/sodipodi-0.dtd"
   xmlns:inkscape="http://www.inkscape.org/namespaces/inkscape"
   width="56.214615mm"
   height="14.709422mm"
   viewBox="0 0 199.18564 52.119999"
   id="svg2"
   version="1.1"
   inkscape:version="0.91 r13725"
   sodipodi:docname="mg_logo.svg">
  <defs
     id="defs4" />
  <sodipodi:namedview
     id="base"
     pagecolor="#ffffff"
     bordercolor="#666666"
     borderopacity="1.0"
     inkscape:pageopacity="0.0"
     inkscape:pageshadow="2"
     inkscape:zoom="1.979899"
     inkscape:cx="178.4515"
     inkscape:cy="-105.90947"
     inkscape:document-units="px"
     inkscape:current-layer="layer1"
     showgrid="false"
     inkscape:window-width="1920"
     inkscape:window-height="1058"
     inkscape:window-x="-8"
     inkscape:window-y="-8"
     inkscape:window-maximized="1"
     fit-margin-top="0"
     fit-margin-left="0"
     fit-margin-right="0"
     fit-margin-bottom="0" />
  <metadata
     id="metadata7">
    <rdf:RDF>
      <cc:Work
         rdf:about="">
        <dc:format>image/svg+xml</dc:format>
        <dc:type
           rdf:resource="http://purl.org/dc/dcmitype/StillImage" />
        <dc:title></dc:title>
      </cc:Work>
    </rdf:RDF>
  </metadata>
  <g
     inkscape:label="Ebene 1"
     inkscape:groupmode="layer"
     id="layer1"
     transform="translate(-3.0853161,-3.35257)">
    <g
       transform="translate(-26.263966,-246.47723)"
       style="font-style:normal;font-weight:normal;font-size:40px;line-height:125%;font-family:sans-serif;letter-spacing:0px;word-spacing:0px;fill:#ffffff;fill-opacity:1;stroke:none;stroke-width:1px;stroke-linecap:butt;stroke-linejoin:miter;stroke-opacity:1"
       id="flowRoot3336">
      <path
         d="m 68.857422,283.9498 q -1.8,0 -2.96,-1.64 -1.12,-1.68 -1.12,-4.16 0,-3 0.4,-5.48 0.4,-2.52 1.32,-5.32 0.4,-1.2 1.12,-1.72 0.72,-0.52 2.28,-0.52 0.88,0 1.2,0.28 0.36,0.28 0.36,0.84 0,0.32 -0.44,2.16 -0.4,1.48 -0.64,2.68 -0.8,4.2 -0.8,5.6 0,0.84 0.2,1.2 0.2,0.32 0.64,0.32 0.6,0 1.48,-1.2 0.92,-1.2 1.92,-3.64 1.04,-2.44 2,-6 0.32,-1.2 0.96,-1.72 0.68,-0.52 2,-0.52 0.92,0 1.28,0.24 0.36,0.2 0.36,0.8 0,1 -1,5.48 -1.12,5.12 -1.12,6.32 0,0.76 0.32,1.2 0.32,0.4 0.84,0.4 0.8,0 1.88,-0.96 1.12,-1 2.96,-3.2 0.48,-0.56 1.08,-0.56 0.52,0 0.8,0.48 0.32,0.48 0.32,1.32 0,1.6 -0.76,2.48 -1.72,2.12 -3.72,3.48 -1.96,1.36 -4.48,1.36 -1.92,0 -2.84,-1.48 -0.88,-1.48 -0.88,-4.16 -0.68,2.72 -2.04,4.2 -1.36,1.44 -2.92,1.44 z"
         style="font-style:normal;font-variant:normal;font-weight:normal;font-stretch:normal;font-size:40px;line-height:125%;font-family:Pacifico;-inkscape-font-specification:'Pacifico, Normal';text-align:start;writing-mode:lr-tb;text-anchor:start;fill:#ffffff"
         id="path3391"
         inkscape:connector-curvature="0" />
      <path
         d="m 90.733047,284.8298 q -2.08,0 -3.2,-0.96 -1.08,-0.96 -1.08,-2.16 0,-1.04 0.76,-1.8 0.76,-0.76 2.24,-0.76 0.52,0 1.2,0.12 0.72,0.08 1.08,0.12 -0.04,-1.04 -0.48,-1.96 -0.4,-0.92 -1.04,-1.76 -0.64,-0.88 -1.2,-1.52 -1.24,2.36 -2.48,3.92 -1.2,1.56 -2.64,2.96 -0.72,0.72 -1.52,0.72 -0.64,0 -1.04,-0.44 -0.4,-0.48 -0.4,-1.16 0,-0.8 0.56,-1.48 l 0.52,-0.64 q 2.2,-2.72 3.32,-4.48 0.68,-1.16 1.6,-3.08 0.92,-1.96 1.8,-4.04 0.76,-1.76 3.16,-1.76 1.12,0 1.56,0.2 0.44,0.2 0.44,0.64 0,0.24 -0.16,0.76 -0.16,0.52 -0.44,1.04 -0.72,1.44 -0.72,2.44 0,0.6 0.4,1.32 0.44,0.72 1.32,1.8 1.28,1.68 1.92,2.88 0.68,1.16 0.68,2.56 0,0.4 -0.08,1.12 1.96,-0.76 4.600003,-4.04 0.48,-0.56 1.08,-0.56 0.52,0 0.8,0.48 0.32,0.48 0.32,1.32 0,1.52 -0.76,2.48 -2,2.48 -3.840003,3.4 -1.8,0.88 -4.48,0.96 -1.6,1.36 -3.8,1.36 z"
         style="font-style:normal;font-variant:normal;font-weight:normal;font-stretch:normal;font-size:40px;line-height:125%;font-family:Pacifico;-inkscape-font-specification:'Pacifico, Normal';text-align:start;writing-mode:lr-tb;text-anchor:start;fill:#ffffff"
         id="path3393"
         inkscape:connector-curvature="0" />
      <path
         d="m 105.64242,262.4698 q -1.68,0 -2.52,-0.76 -0.84,-0.8 -0.84,-2.2 0,-1.4 1.08,-2.32 1.12,-0.96 2.76,-0.96 1.48,0 2.4,0.72 0.92,0.72 0.92,2.04 0,1.6 -1.04,2.56 -1.04,0.92 -2.76,0.92 z m -0.32,21.48 q -2.6,0 -3.8,-1.84 -1.16,-1.84 -1.16,-4.88 0,-1.8 0.44,-4.6 0.48,-2.84 1.2,-5.28 0.36,-1.28 0.96,-1.76 0.6,-0.48 1.92,-0.48 2.04,0 2.04,1.36 0,1 -0.76,4.64 -0.96,4.4 -0.96,5.96 0,1.2 0.32,1.84 0.32,0.64 1.08,0.64 0.72,0 1.8,-1 1.08,-1 2.88,-3.16 0.48,-0.56 1.08,-0.56 0.52,0 0.8,0.48 0.32,0.48 0.32,1.32 0,1.6 -0.76,2.48 -3.96,4.84 -7.4,4.84 z"
         style="font-style:normal;font-variant:normal;font-weight:normal;font-stretch:normal;font-size:40px;line-height:125%;font-family:Pacifico;-inkscape-font-specification:'Pacifico, Normal';text-align:start;writing-mode:lr-tb;text-anchor:start;fill:#ffffff"
         id="path3395"
         inkscape:connector-curvature="0" />
      <path
         d="m 117.88617,283.9498 q -3.92,0 -6.12,-2.2 -2.16,-2.24 -2.16,-5.88 0,-3.24 1.28,-5.68 1.28,-2.44 3.32,-3.76 2.04,-1.32 4.28,-1.32 2.2,0 3.4,1.32 1.24,1.28 1.24,3.32 0,1.68 -0.76,2.84 -0.72,1.16 -1.92,1.16 -0.76,0 -1.24,-0.36 -0.44,-0.36 -0.44,-1 0,-0.28 0.08,-0.64 0.08,-0.36 0.12,-0.52 0.2,-0.6 0.2,-1.12 0,-0.52 -0.28,-0.8 -0.24,-0.28 -0.72,-0.28 -0.92,0 -1.72,0.84 -0.8,0.8 -1.28,2.2 -0.48,1.4 -0.48,3.08 0,4.64 4.04,4.64 1.64,0 3.52,-1.08 1.92,-1.12 3.76,-3.32 0.48,-0.56 1.08,-0.56 0.52,0 0.8,0.48 0.32,0.48 0.32,1.32 0,1.52 -0.76,2.48 -1.88,2.32 -4.52,3.6 -2.6,1.24 -5.04,1.24 z"
         style="font-style:normal;font-variant:normal;font-weight:normal;font-stretch:normal;font-size:40px;line-height:125%;font-family:Pacifico;-inkscape-font-specification:'Pacifico, Normal';text-align:start;writing-mode:lr-tb;text-anchor:start;fill:#ffffff"
         id="path3397"
         inkscape:connector-curvature="0" />
      <path
         d="m 158.69367,274.9098 q 0.52,0 0.8,0.52 0.32,0.48 0.32,1.24 0,0.92 -0.28,1.44 -0.28,0.52 -0.88,0.92 -2.36,1.56 -7.52,5.12 -1.56,8.28 -4.04,13.04 -2.48,4.76 -6.28,4.76 -2.04,0 -3.32,-1.28 -1.28,-1.24 -1.28,-3.28 0,-1.88 0.84,-3.8 0.84,-1.92 3.12,-4.44 2.32,-2.52 6.52,-5.76 l 0.12,-0.76 q -3.16,1.32 -6.2,1.32 -4.48,0 -7.88,-1.72 -3.4,-1.76 -5.28,-4.96 -1.88,-3.2 -1.88,-7.44 0,-5.92 2.24,-10.44 2.24,-4.56 6.16,-7.04 3.96,-2.52 8.84,-2.52 4.68,0 7,2.2 2.36,2.16 2.36,5.76 0,2.36 -0.88,3.8 -0.84,1.4 -2.44,1.4 -1.08,0 -1.76,-0.52 -0.64,-0.52 -0.64,-1.44 0,-0.4 0.16,-1.36 0.24,-1.12 0.24,-1.76 0,-1.68 -1.04,-2.6 -1,-0.92 -3.4,-0.92 -2.92,0 -5.44,1.68 -2.48,1.68 -4,5.04 -1.52,3.32 -1.52,8 0,4.8 2.6,7.44 2.64,2.6 7.6,2.6 2.76,0 5.76,-1.24 l 0.56,-4.88 -4.08,0 q -1.12,0 -1.72,-0.52 -0.6,-0.56 -0.6,-1.8 0,-1.12 0.6,-1.76 0.6,-0.64 1.6,-0.64 l 7.48,0 q 0.88,0 1.44,0.6 0.6,0.56 0.48,1.64 -0.12,1.28 -0.8,5.8 l -0.44,3.04 q 3.2,-2.4 5.84,-4.16 0.52,-0.32 0.92,-0.32 z m -17.44,23.16 q 1.04,0 2.28,-2.36 1.24,-2.36 2.32,-7.6 -3.04,2.6 -4.4,4.68 -1.32,2.12 -1.32,3.72 0,1.56 1.12,1.56 z"
         style="font-style:normal;font-variant:normal;font-weight:normal;font-stretch:normal;font-size:40px;line-height:125%;font-family:Pacifico;-inkscape-font-specification:'Pacifico, Normal';text-align:start;writing-mode:lr-tb;text-anchor:start;fill:#ffffff"
         id="path3399"
         inkscape:connector-curvature="0" />
      <path
         d="m 160.9668,283.9498 q -1.8,0 -2.96,-1.64 -1.12,-1.68 -1.12,-4.16 0,-3 0.4,-5.48 0.4,-2.52 1.32,-5.32 0.4,-1.2 1.12,-1.72 0.72,-0.52 2.28,-0.52 0.88,0 1.2,0.28 0.36,0.28 0.36,0.84 0,0.32 -0.44,2.16 -0.4,1.48 -0.64,2.68 -0.8,4.2 -0.8,5.6 0,0.84 0.2,1.2 0.2,0.32 0.64,0.32 0.6,0 1.48,-1.2 0.92,-1.2 1.92,-3.64 1.04,-2.44 2,-6 0.32,-1.2 0.96,-1.72 0.68,-0.52 2,-0.52 0.92,0 1.28,0.24 0.36,0.2 0.36,0.8 0,1 -1,5.48 -1.12,5.12 -1.12,6.32 0,0.76 0.32,1.2 0.32,0.4 0.84,0.4 0.8,0 1.88,-0.96 1.12,-1 2.96,-3.2 0.48,-0.56 1.08,-0.56 0.52,0 0.8,0.48 0.32,0.48 0.32,1.32 0,1.6 -0.76,2.48 -1.72,2.12 -3.72,3.48 -1.96,1.36 -4.48,1.36 -1.92,0 -2.84,-1.48 -0.88,-1.48 -0.88,-4.16 -0.68,2.72 -2.04,4.2 -1.36,1.44 -2.92,1.44 z"
         style="font-style:normal;font-variant:normal;font-weight:normal;font-stretch:normal;font-size:40px;line-height:125%;font-family:Pacifico;-inkscape-font-specification:'Pacifico, Normal';text-align:start;writing-mode:lr-tb;text-anchor:start;fill:#ffffff"
         id="path3401"
         inkscape:connector-curvature="0" />
      <path
         d="m 193.24242,274.8298 q 0.52,0 0.8,0.48 0.32,0.48 0.32,1.32 0,1.6 -0.76,2.48 -1.48,1.8 -4.2,3.32 -2.68,1.52 -5.76,1.52 -4.2,0 -6.52,-2.28 -2.32,-2.28 -2.32,-6.24 0,-2.76 1.16,-5.12 1.16,-2.4 3.2,-3.8 2.08,-1.4 4.68,-1.4 2.32,0 3.72,1.4 1.4,1.36 1.4,3.72 0,2.76 -2,4.76 -1.96,1.96 -6.68,3.12 1,1.84 3.8,1.84 1.8,0 4.08,-1.24 2.32,-1.28 4,-3.32 0.48,-0.56 1.08,-0.56 z m -10.08,-5.8 q -1.48,0 -2.52,1.72 -1,1.72 -1,4.16 l 0,0.08 q 2.36,-0.56 3.72,-1.68 1.36,-1.12 1.36,-2.6 0,-0.76 -0.44,-1.2 -0.4,-0.48 -1.12,-0.48 z"
         style="font-style:normal;font-variant:normal;font-weight:normal;font-stretch:normal;font-size:40px;line-height:125%;font-family:Pacifico;-inkscape-font-specification:'Pacifico, Normal';text-align:start;writing-mode:lr-tb;text-anchor:start;fill:#ffffff"
         id="path3403"
         inkscape:connector-curvature="0" />
      <path
         d="m 198.54555,284.8298 q -2.08,0 -3.2,-0.96 -1.08,-0.96 -1.08,-2.16 0,-1.04 0.76,-1.8 0.76,-0.76 2.24,-0.76 0.52,0 1.2,0.12 0.72,0.08 1.08,0.12 -0.04,-1.04 -0.48,-1.96 -0.4,-0.92 -1.04,-1.76 -0.64,-0.88 -1.2,-1.52 -1.24,2.36 -2.48,3.92 -1.2,1.56 -2.64,2.96 -0.72,0.72 -1.52,0.72 -0.64,0 -1.04,-0.44 -0.4,-0.48 -0.4,-1.16 0,-0.8 0.56,-1.48 l 0.52,-0.64 q 2.2,-2.72 3.32,-4.48 0.68,-1.16 1.6,-3.08 0.92,-1.96 1.8,-4.04 0.76,-1.76 3.16,-1.76 1.12,0 1.56,0.2 0.44,0.2 0.44,0.64 0,0.24 -0.16,0.76 -0.16,0.52 -0.44,1.04 -0.72,1.44 -0.72,2.44 0,0.6 0.4,1.32 0.44,0.72 1.32,1.8 1.28,1.68 1.92,2.88 0.68,1.16 0.68,2.56 0,0.4 -0.08,1.12 1.96,-0.76 4.6,-4.04 0.48,-0.56 1.08,-0.56 0.52,0 0.8,0.48 0.32,0.48 0.32,1.32 0,1.52 -0.76,2.48 -2,2.48 -3.84,3.4 -1.8,0.88 -4.48,0.96 -1.6,1.36 -3.8,1.36 z"
         style="font-style:normal;font-variant:normal;font-weight:normal;font-stretch:normal;font-size:40px;line-height:125%;font-family:Pacifico;-inkscape-font-specification:'Pacifico, Normal';text-align:start;writing-mode:lr-tb;text-anchor:start;fill:#ffffff"
         id="path3405"
         inkscape:connector-curvature="0" />
      <path
         d="m 215.65492,284.8298 q -2.08,0 -3.2,-0.96 -1.08,-0.96 -1.08,-2.16 0,-1.04 0.76,-1.8 0.76,-0.76 2.24,-0.76 0.52,0 1.2,0.12 0.72,0.08 1.08,0.12 -0.04,-1.04 -0.48,-1.96 -0.4,-0.92 -1.04,-1.76 -0.64,-0.88 -1.2,-1.52 -1.24,2.36 -2.48,3.92 -1.2,1.56 -2.64,2.96 -0.72,0.72 -1.52,0.72 -0.64,0 -1.04,-0.44 -0.4,-0.48 -0.4,-1.16 0,-0.8 0.56,-1.48 l 0.52,-0.64 q 2.2,-2.72 3.32,-4.48 0.68,-1.16 1.6,-3.08 0.92,-1.96 1.8,-4.04 0.76,-1.76 3.16,-1.76 1.12,0 1.56,0.2 0.44,0.2 0.44,0.64 0,0.24 -0.16,0.76 -0.16,0.52 -0.44,1.04 -0.72,1.44 -0.72,2.44 0,0.6 0.4,1.32 0.44,0.72 1.32,1.8 1.28,1.68 1.92,2.88 0.68,1.16 0.68,2.56 0,0.4 -0.08,1.12 1.96,-0.76 4.6,-4.04 0.48,-0.56 1.08,-0.56 0.52,0 0.8,0.48 0.32,0.48 0.32,1.32 0,1.52 -0.76,2.48 -2,2.48 -3.84,3.4 -1.8,0.88 -4.48,0.96 -1.6,1.36 -3.8,1.36 z"
         style="font-style:normal;font-variant:normal;font-weight:normal;font-stretch:normal;font-size:40px;line-height:125%;font-family:Pacifico;-inkscape-font-specification:'Pacifico, Normal';text-align:start;writing-mode:lr-tb;text-anchor:start;fill:#ffffff"
         id="path3407"
         inkscape:connector-curvature="0" />
    </g>
    <flowRoot
       xml:space="preserve"
       id="flowRoot3344"
       style="font-style:normal;font-weight:normal;font-size:40px;line-height:125%;font-family:sans-serif;letter-spacing:0px;word-spacing:0px;fill:#000000;fill-opacity:1;stroke:none;stroke-width:1px;stroke-linecap:butt;stroke-linejoin:miter;stroke-opacity:1"><flowRegion
         id="flowRegion3346"><rect
           id="rect3348"
           width="1257.1428"
           height="74.285713"
           x="-765.71429"
           y="332.36221" /></flowRegion><flowPara
         id="flowPara3350" /></flowRoot>    <g
       transform="matrix(0.11645316,0,0,0.11645316,2.0571909,4.430284)"
       id="g3"
       style="fill:#ffffff">
      <path
         inkscape:connector-curvature="0"
         d="m 57.171,212.603 c -34.905,13.926 -55.519,44.482 -46.035,68.246 9.49,23.752 45.468,31.727 80.381,17.789 24.157,-9.646 41.449,-27.246 46.677,-45.048 1.108,-2.079 1.737,-4.448 1.737,-6.957 l 0,-133.499 127.056,-23.538 0,112.767 c -15.128,-4.248 -34.256,-3.113 -53.066,4.4 -34.912,13.922 -55.517,44.479 -46.045,68.23 9.481,23.764 45.468,31.723 80.381,17.793 24.164,-9.654 41.469,-27.255 46.69,-45.056 1.094,-2.076 1.724,-4.44 1.724,-6.945 l 0,-179.93 c 0,-0.938 -0.093,-1.851 -0.261,-2.747 l 0,-48.796 C 296.41,4.17 292.238,0 287.104,0 L 119.489,31.042 c -5.16,0 -9.328,4.166 -9.328,9.309 l 0,67.247 c 0,0.261 0.054,0.495 0.076,0.755 l 0,99.849 c -15.11,-4.244 -34.241,-3.109 -53.066,4.401 z"
         id="path5"
         style="fill:#ffffff" />
    </g>
    <g
       transform="translate(121.53588,328.18417)"
       id="g7" />
    <g
       transform="translate(121.53588,328.18417)"
       id="g9" />
    <g
       transform="translate(121.53588,328.18417)"
       id="g11" />
    <g
       transform="translate(121.53588,328.18417)"
       id="g13" />
    <g
       transform="translate(121.53588,328.18417)"
       id="g15" />
    <g
       transform="translate(121.53588,328.18417)"
       id="g17" />
    <g
       transform="translate(121.53588,328.18417)"
       id="g19" />
    <g
       transform="translate(121.53588,328.18417)"
       id="g21" />
    <g
       transform="translate(121.53588,328.18417)"
       id="g23" />
    <g
       transform="translate(121.53588,328.18417)"
       id="g25" />
    <g
       transform="translate(121.53588,328.18417)"
       id="g27" />
    <g
       transform="translate(121.53588,328.18417)"
       id="g29" />
    <g
       transform="translate(121.53588,328.18417)"
       id="g31" />
    <g
       transform="translate(121.53588,328.18417)"
       id="g33" />
    <g
       transform="translate(121.53588,328.18417)"
       id="g35" />
  </g>
</svg>
